<svg xmlns="http://www.w3.org/2000/svg" width="44" height="44" fill="none"><path fill="#fff" d="M24.796 7.894a1.376 1.376 0 0 1 1.685-.972 14.82 14.82 0 0 1 10.598 10.597 1.376 1.376 0 1 1-2.658.71 12.09 12.09 0 0 0-8.65-8.65 1.374 1.374 0 0 1-.975-1.685m-.4 7.185c2.37.632 3.893 2.155 4.525 4.525a1.375 1.375 0 1 0 2.658-.71c-.88-3.293-3.18-5.592-6.473-6.472a1.375 1.375 0 0 0-.71 2.657m14.083 16.388a9.67 9.67 0 0 1-9.604 8.408c-13.647 0-24.75-11.103-24.75-24.75a9.67 9.67 0 0 1 8.408-9.604 2.75 2.75 0 0 1 2.857 1.636l3.63 8.104v.02a2.75 2.75 0 0 1-.219 2.594q-.045.07-.098.133l-3.578 4.241c1.287 2.616 4.024 5.329 6.674 6.62l4.183-3.56q.062-.052.13-.097a2.75 2.75 0 0 1 2.607-.24l.022.01 8.097 3.628a2.75 2.75 0 0 1 1.641 2.857m-2.729-.344h-.019l-8.078-3.618-4.185 3.56q-.06.051-.127.096a2.75 2.75 0 0 1-2.707.196c-3.22-1.555-6.428-4.74-7.986-7.925a2.75 2.75 0 0 1 .172-2.699q.044-.069.098-.132l3.582-4.247-3.61-8.078v-.02a6.91 6.91 0 0 0-6.015 6.87 22.024 22.024 0 0 0 22 22 6.91 6.91 0 0 0 6.875-6.004z"/></svg>