<svg width="44" height="44" viewBox="0 0 44 44" fill="none" xmlns="http://www.w3.org/2000/svg">
<path d="M24.0625 22C24.0625 22.4079 23.9415 22.8067 23.7149 23.1459C23.4883 23.485 23.1662 23.7494 22.7893 23.9055C22.4124 24.0616 21.9977 24.1024 21.5976 24.0229C21.1975 23.9433 20.83 23.7468 20.5416 23.4584C20.2531 23.17 20.0567 22.8025 19.9771 22.4024C19.8975 22.0023 19.9384 21.5876 20.0945 21.2107C20.2506 20.8338 20.515 20.5117 20.8541 20.2851C21.1933 20.0585 21.5921 19.9375 22 19.9375C22.547 19.9375 23.0716 20.1548 23.4584 20.5416C23.8452 20.9284 24.0625 21.453 24.0625 22ZM14.4375 19.9375C14.0296 19.9375 13.6308 20.0585 13.2916 20.2851C12.9525 20.5117 12.6881 20.8338 12.532 21.2107C12.3759 21.5876 12.335 22.0023 12.4146 22.4024C12.4942 22.8025 12.6906 23.17 12.9791 23.4584C13.2675 23.7468 13.635 23.9433 14.0351 24.0229C14.4352 24.1024 14.8499 24.0616 15.2268 23.9055C15.6037 23.7494 15.9258 23.485 16.1524 23.1459C16.379 22.8067 16.5 22.4079 16.5 22C16.5 21.453 16.2827 20.9284 15.8959 20.5416C15.5091 20.1548 14.9845 19.9375 14.4375 19.9375ZM29.5625 19.9375C29.1546 19.9375 28.7558 20.0585 28.4166 20.2851C28.0775 20.5117 27.8131 20.8338 27.657 21.2107C27.5009 21.5876 27.46 22.0023 27.5396 22.4024C27.6192 22.8025 27.8156 23.17 28.1041 23.4584C28.3925 23.7468 28.76 23.9433 29.1601 24.0229C29.5602 24.1024 29.9749 24.0616 30.3518 23.9055C30.7287 23.7494 31.0508 23.485 31.2774 23.1459C31.504 22.8067 31.625 22.4079 31.625 22C31.625 21.453 31.4077 20.9284 31.0209 20.5416C30.6341 20.1548 30.1095 19.9375 29.5625 19.9375ZM39.875 22C39.8757 25.0861 39.0774 28.1197 37.5577 30.8057C36.0381 33.4917 33.849 35.7386 31.2034 37.3275C28.5578 38.9164 25.5459 39.7934 22.4609 39.8729C19.3758 39.9525 16.3227 39.232 13.5988 37.7816L7.74641 39.7323C7.26187 39.8939 6.7419 39.9174 6.24478 39.8001C5.74766 39.6827 5.29304 39.4293 4.93187 39.0681C4.5707 38.7069 4.31725 38.2523 4.19993 37.7552C4.08262 37.2581 4.10607 36.7381 4.26766 36.2536L6.21844 30.4012C4.94338 28.004 4.23121 25.3477 4.136 22.6342C4.04078 19.9206 4.56501 17.221 5.6689 14.7402C6.77279 12.2595 8.42733 10.0628 10.5069 8.31701C12.5865 6.57118 15.0365 5.32206 17.6709 4.66447C20.3054 4.00687 23.055 3.95808 25.7111 4.5218C28.3672 5.08552 30.8599 6.24693 33.0001 7.91788C35.1404 9.58883 36.8718 11.7254 38.063 14.1654C39.2542 16.6054 39.8739 19.2847 39.875 22ZM37.125 22C37.1243 19.6799 36.5899 17.391 35.5632 15.3105C34.5364 13.23 33.0447 11.4136 31.2036 10.0018C29.3625 8.59001 27.2212 7.62071 24.9456 7.16888C22.6699 6.71704 20.3208 6.79479 18.0799 7.39611C15.8391 7.99743 13.7667 9.1062 12.0229 10.6366C10.2792 12.1671 8.91089 14.0781 8.02392 16.222C7.13694 18.3659 6.75506 20.685 6.90782 23.0001C7.06057 25.3152 7.74387 27.5641 8.90484 29.5728C9.00228 29.7414 9.06279 29.9289 9.08234 30.1226C9.1019 30.3164 9.08006 30.5122 9.01828 30.6969L6.875 37.125L13.3031 34.9817C13.4431 34.934 13.59 34.9096 13.738 34.9095C13.9795 34.9099 14.2166 34.974 14.4255 35.0951C16.7248 36.4255 19.334 37.1268 21.9904 37.1285C24.6469 37.1301 27.257 36.4321 29.558 35.1047C31.859 33.7773 33.7698 31.8672 35.0982 29.5667C36.4266 27.2662 37.1256 24.6565 37.125 22Z" fill="#FF7F00"/>
</svg>
