<svg xmlns="http://www.w3.org/2000/svg" width="44" height="44" fill="none"><path fill="#FF7F00" d="M24.063 22a2.063 2.063 0 1 1-4.126 0 2.063 2.063 0 0 1 4.125 0m-9.625-2.062a2.063 2.063 0 1 0 0 4.125 2.063 2.063 0 0 0 0-4.125m15.125 0a2.063 2.063 0 1 0 0 4.125 2.063 2.063 0 0 0 0-4.125M39.875 22a17.874 17.874 0 0 1-26.276 15.782l-5.853 1.95a2.75 2.75 0 0 1-3.478-3.478l1.95-5.853A17.875 17.875 0 1 1 39.875 22m-2.75 0A15.127 15.127 0 0 0 18.08 7.396a15.126 15.126 0 0 0-9.175 22.177 1.38 1.38 0 0 1 .113 1.124l-2.143 6.428 6.428-2.143a1.35 1.35 0 0 1 1.122.113A15.125 15.125 0 0 0 37.126 22"/></svg>